<svg width="117" height="94" viewBox="0 0 117 94" fill="none" xmlns="http://www.w3.org/2000/svg">
<circle cx="67" cy="47" r="47" fill="#EB5E28"/>
<path d="M8.544 72.5H0.432L13.104 36.98H20.688L33.312 72.5H25.056L22.56 65.012H11.088L8.544 72.5ZM15.888 50.9L13.344 58.484H20.352L17.808 50.9C17.616 50.292 17.424 49.668 17.232 49.028C17.04 48.388 16.912 47.86 16.848 47.444C16.784 47.86 16.656 48.388 16.464 49.028C16.304 49.636 16.112 50.26 15.888 50.9ZM44.982 72.5H37.446V36.98H44.982L55.542 63.476L66.15 36.98H73.782V72.5H66.246V65.06C66.246 63.14 66.246 61.556 66.246 60.308C66.246 59.06 66.262 58.02 66.294 57.188C66.326 56.356 66.358 55.636 66.39 55.028C66.454 54.388 66.534 53.732 66.63 53.06L59.094 72.5H51.99L44.502 53.06C44.726 54.372 44.854 55.796 44.886 57.332C44.95 58.868 44.982 60.612 44.982 62.564V72.5ZM97.1964 74.164C93.9537 74.164 91.1804 73.0547 88.8764 70.836C86.5724 68.532 85.4204 65.8013 85.4204 62.644C85.4204 59.4013 86.5724 56.6707 88.8764 54.452C91.1804 52.148 93.9537 50.996 97.1964 50.996C100.354 50.996 103.084 52.148 105.388 54.452C107.778 56.6707 108.972 59.4013 108.972 62.644C108.972 65.8013 107.778 68.532 105.388 70.836C103.084 73.0547 100.354 74.164 97.1964 74.164Z" fill="#252422"/>
</svg>
