<svg width="626" height="660" viewBox="0 0 626 660" fill="none" xmlns="http://www.w3.org/2000/svg">
<g opacity="0.2">
<path d="M365.83 659.085C469.013 659.085 552.658 647.27 552.658 632.697C552.658 618.123 469.013 606.309 365.83 606.309C262.648 606.309 179.002 618.123 179.002 632.697C179.002 647.27 262.648 659.085 365.83 659.085Z" fill="#212529"/>
</g>
<path d="M342.419 373.96C342.419 373.96 326.468 388.182 299.634 398.144C285.15 403.525 267.479 407.662 247.452 407.642C167.485 407.571 142.148 361.822 142.148 361.822L165.897 280.965C173.281 295.035 182.425 305.504 192.57 313.15C220.881 334.513 257.031 333.956 284.654 328.757C308.95 324.196 326.651 316.043 326.651 316.043L337.079 354.358L342.419 373.96Z" fill="#495057"/>
<path d="M337.079 354.358C314.068 349.068 295.457 339.975 284.655 328.757C308.95 324.196 326.651 316.043 326.651 316.043L337.079 354.358Z" fill="#343A40"/>
<path d="M435.739 353.053C420.283 357.129 402.583 359.435 383.769 359.435C350.866 359.435 321.351 352.365 301.304 341.178C307.413 327.412 314.463 312.493 322.555 296.309L429.892 287.429C425.25 300.376 429.69 325.227 435.739 353.053Z" fill="#7C7C7C"/>
<path d="M459.65 344.537C449.029 349.523 436.345 353.468 422.286 356.047L411.099 325.582C411.099 325.582 424.005 329.476 440.482 336.141C446.531 338.579 453.085 341.391 459.65 344.537Z" fill="#7C7C7C"/>
<path d="M432.198 353.943C417.603 357.463 401.166 359.436 383.769 359.436C355.428 359.436 329.615 354.196 310.195 345.599C299.908 319.513 303.327 310.814 303.327 310.814C303.327 310.814 454.471 298.15 458.446 317.56C460.722 328.646 445.429 338.437 432.198 353.943Z" fill="#E8E8E8"/>
<path d="M299.634 398.144C285.15 403.525 267.479 407.662 247.452 407.642C167.485 407.571 142.148 361.822 142.148 361.822L165.897 280.965C173.281 295.035 182.425 305.504 192.57 313.15C195.483 341.967 197.182 380.808 230.318 389.274C261.39 397.224 288.71 371.168 288.71 371.168L299.634 398.144Z" fill="#343A40"/>
<path d="M247.6 411.693C247.55 411.693 247.501 411.693 247.452 411.693C205.09 411.651 177.868 398.797 162.492 388.02C145.59 376.175 138.885 364.287 138.608 363.787L137.789 362.308L164.828 270.231L169.474 279.089C187.785 313.993 219.359 330.255 263.299 327.423C296.59 325.278 324.676 312.494 324.956 312.365C326.985 311.427 329.388 312.318 330.324 314.346C331.259 316.376 330.371 318.779 328.342 319.714C327.144 320.266 298.596 333.258 263.819 335.498C220.674 338.28 187.429 322.981 167.118 291.152L146.542 361.218C148.723 364.477 155.208 373.125 167.551 381.682C181.941 391.659 207.486 403.561 247.46 403.601C247.503 403.601 247.552 403.601 247.597 403.601C302.463 403.601 339.356 371.266 339.722 370.939C341.39 369.453 343.948 369.598 345.435 371.266C346.923 372.934 346.776 375.492 345.108 376.979C343.517 378.397 305.512 411.693 247.6 411.693Z" fill="#212529"/>
<path d="M178.868 398.386L163.167 399.943C159.851 400.269 156.896 397.853 156.57 394.538L154.529 373.959L150.483 333.155L142.122 248.937L137.071 198.055C136.735 194.74 139.161 191.784 142.476 191.458L158.178 189.901C161.493 189.575 164.448 191.99 164.774 195.306L169.825 246.178L178.088 329.439L181.631 365.205L184.274 391.789C184.61 395.104 182.184 398.06 178.868 398.386Z" fill="#D3D3D3"/>
<path d="M181.63 365.204C175.763 366.973 168.557 367.067 163.368 367.192C158.755 367.299 156.073 370.592 154.528 373.959L150.482 333.155C159.816 331.862 170.42 330.446 178.087 329.439L181.63 365.204Z" fill="#AFAFAF"/>
<path d="M169.825 246.178L142.122 248.937L137.071 198.055C136.735 194.74 139.161 191.784 142.476 191.458L158.178 189.901C161.493 189.575 164.448 191.99 164.774 195.306L169.825 246.178Z" fill="#AFAFAF"/>
<path d="M162.552 404.02C160.231 404.02 158.001 403.226 156.183 401.736C154.099 400.029 152.807 397.613 152.542 394.934L133.041 198.458C132.493 192.927 136.546 187.982 142.075 187.432L157.776 185.874C163.327 185.332 168.254 189.378 168.803 194.909L188.303 391.385C188.851 396.917 184.798 401.863 179.267 402.411L163.567 403.97C163.228 404.003 162.889 404.02 162.552 404.02ZM158.774 193.917C158.708 193.917 158.643 193.92 158.576 193.927L142.875 195.485C141.784 195.593 140.984 196.569 141.093 197.66L160.593 394.136C160.665 394.849 161.074 395.282 161.311 395.476C161.549 395.672 162.043 395.991 162.768 395.917L178.469 394.359C179.559 394.25 180.359 393.275 180.25 392.184L160.751 195.708C160.649 194.684 159.782 193.917 158.774 193.917Z" fill="#212529"/>
<path d="M200.824 312.847C197.739 321.02 192.065 326.674 183.113 323.7C164.239 317.429 171.856 277.001 171.856 277.001C171.856 277.001 178.885 272.692 186.795 273.137C191.569 273.41 196.667 275.412 200.743 281.127C204.405 286.266 204.981 301.842 200.824 312.847Z" fill="white"/>
<path d="M200.824 312.847C197.739 321.02 192.065 326.674 183.113 323.7C164.239 317.429 171.856 277.001 171.856 277.001C171.856 277.001 178.885 272.692 186.795 273.137C189.617 277.567 193.572 286.336 194.887 301.893C195.494 309.014 198.073 312.038 200.824 312.847Z" fill="#D3D4E2"/>
<path d="M187.748 328.551C185.849 328.551 183.87 328.216 181.835 327.54C160.229 320.355 167.036 280.747 167.884 276.254L168.216 274.492L169.745 273.554C177.106 269.043 193.746 264.326 204.042 278.779C209.782 286.835 209.078 310.276 200.804 321.473C197.356 326.141 192.843 328.551 187.748 328.551ZM175.511 279.64C173.704 291.058 172.398 315.874 184.388 319.861C188.576 321.253 191.633 320.268 194.296 316.665C200.949 307.661 200.663 287.981 197.451 283.474C190.502 273.718 179.554 277.694 175.511 279.64Z" fill="#212529"/>
<path d="M187.594 323.488C187.381 331.873 186.532 338.346 185.206 340.663C177.762 353.66 162.499 352.305 155.985 352.204C152.829 358.394 154.417 376.833 154.417 376.833C154.417 376.833 132.033 360.447 130.789 329.041C130.688 326.543 130.718 323.953 130.91 321.273C134.39 271.994 149.066 266.128 163.015 265.996C171.612 265.915 181.818 271.549 184.266 283.373C186.946 296.35 187.897 311.775 187.594 323.488Z" fill="white"/>
<path d="M187.593 323.488C187.381 331.873 186.531 338.347 185.206 340.663C177.762 353.66 162.499 352.305 155.985 352.204C152.829 358.394 154.417 376.833 154.417 376.833C154.417 376.833 132.033 360.447 130.789 329.041C148.338 337.517 178.136 339.591 187.593 323.488Z" fill="#D3D4E2"/>
<path d="M159.216 385.349L152.033 380.095C150.895 379.262 124.176 359.255 126.878 320.991C130.532 269.239 147.176 262.105 162.974 261.951C163.048 261.951 163.121 261.95 163.195 261.95C173.556 261.95 185.425 268.99 188.224 282.551C192.637 303.913 192.893 335.38 188.715 342.674C181.092 355.983 166.834 356.474 158.858 356.322C157.811 361.224 157.934 370.451 158.453 376.482L159.216 385.349ZM163.207 270.042C163.154 270.042 163.104 270.042 163.053 270.043C154.497 270.126 138.57 270.28 134.949 321.561C133.382 343.771 142.959 358.986 149.95 366.984C149.944 361.082 150.425 354.205 152.378 350.372L153.522 348.123L156.045 348.163C156.498 348.17 156.993 348.182 157.524 348.196C166.442 348.429 176.395 347.902 181.693 338.652C183.794 334.985 185.199 307.907 180.3 284.187C178.289 274.448 170.062 270.042 163.207 270.042Z" fill="#212529"/>
<path d="M146.158 351.552C146.158 351.552 151.12 351.131 155.981 352.208Z" fill="white"/>
<path d="M145.986 349.536C149.672 348.606 153.21 348.109 157.071 348.266C162.55 348.64 162.255 356.606 156.76 356.57C154.676 356.313 153.054 355.025 150.904 354.578C149.382 354.132 147.706 353.782 146.16 353.54C143.985 353.19 143.879 350.056 145.986 349.536Z" fill="#212529"/>
<path d="M433.063 547.301C488.208 578.888 540.572 550.05 548.514 506.382C550.072 497.805 549.903 488.652 547.72 479.281C546.439 473.782 544.454 468.213 541.704 462.614C539.282 457.67 536.8 452.717 534.388 447.753C525.96 430.431 518.415 413.148 517.085 397.017C516.45 389.363 517.214 381.957 519.964 374.939C521.424 371.237 523.776 368.04 526.665 365.499C530.09 362.491 534.269 360.396 538.577 359.483C540.503 359.076 542.449 358.897 544.375 358.987C556.793 359.513 568.06 370.75 563.514 398.764C557.141 438.124 599.936 450.433 615.66 416.682C616.355 415.183 616.98 413.605 617.566 411.957C617.755 411.381 617.953 410.795 618.142 410.209C627.96 378.781 616.067 324.361 567.514 312.955C565.291 312.419 562.978 311.992 560.585 311.655C557.309 311.198 554.083 310.92 550.927 310.841C545.07 310.682 539.421 311.159 534.051 312.211C494.611 319.934 469.784 358.758 482.222 407.46C488.903 433.598 515.934 482.885 504.488 506.69C500.865 514.234 489.747 520.091 476.574 519.476C476.236 519.466 475.889 519.446 475.541 519.426H475.532C466.031 518.741 455.539 514.671 446.098 505.459L433.063 547.301Z" fill="#495057"/>
<path d="M433.067 547.302C488.209 578.889 540.581 550.045 548.516 506.382C541.852 528.426 505.812 542.675 476.579 519.473C476.24 519.464 475.893 519.446 475.546 519.42H475.537C466.035 518.734 455.544 514.664 446.105 505.456L433.067 547.302Z" fill="#343A40"/>
<path d="M502.664 383.759C505.086 413.084 525.283 437.93 534.384 447.752C525.96 430.432 518.417 413.146 517.081 397.019C516.449 389.36 517.215 381.96 519.967 374.943C521.418 371.238 523.769 368.041 526.664 365.503C531.615 361.139 538.143 358.708 544.376 358.984C556.79 359.51 568.056 370.748 563.514 398.764C557.138 438.126 599.937 450.433 615.654 416.682C616.349 415.186 616.981 413.601 617.56 411.953C609.652 417.893 589.884 428.09 578.929 415.907C563.514 398.764 584.513 370.147 564.262 349.064C548.833 333.002 499.52 345.733 502.664 383.759Z" fill="#343A40"/>
<path d="M533.642 345.109C534.029 345.516 539.032 344.215 538.893 344.761C538.307 347.154 537.225 351.988 538.575 359.483C538.605 359.473 538.625 359.473 538.655 359.473C539.032 359.384 539.399 359.314 539.777 359.265C540.104 359.205 540.432 359.165 540.759 359.126C541.018 359.096 541.286 359.066 541.554 359.046C541.792 359.026 542.04 359.007 542.288 358.997C542.983 358.957 543.678 358.957 544.373 358.987C556.791 359.513 568.058 370.75 563.512 398.764C557.139 438.124 599.934 450.434 615.658 416.682C616.353 415.183 616.978 413.605 617.564 411.957C609.652 417.893 589.888 428.088 578.928 415.908C563.512 398.764 584.517 370.144 564.266 349.06C557.824 342.359 545.495 340.671 533.533 343.739C533.374 344.364 533.384 344.841 533.642 345.109Z" fill="#686868"/>
<path d="M538.575 359.483C540.501 359.076 542.446 358.897 544.372 358.986C556.791 359.513 568.058 370.75 563.511 398.764C557.138 438.124 599.933 450.433 615.657 416.682C616.352 415.183 616.978 413.604 617.564 411.956C617.752 411.381 617.951 410.795 618.139 410.209C627.957 378.781 616.065 324.361 567.512 312.955C565.288 312.419 562.975 311.992 560.583 311.655C557.307 311.198 554.081 310.92 550.924 310.841C547.724 312.843 539.713 320.645 537.494 328.82C537.22 329.832 542.333 327.862 541.932 328.937C540.584 332.552 531.976 343.36 533.64 345.112C534.024 345.516 539.028 344.219 538.896 344.762C538.312 347.156 537.222 351.985 538.575 359.483Z" fill="white"/>
<path d="M533.642 345.109C534.029 345.516 539.032 344.215 538.893 344.761C538.307 347.154 537.225 351.988 538.575 359.483C538.605 359.473 538.625 359.473 538.655 359.473C539.032 359.394 539.399 359.324 539.777 359.265C540.104 359.205 540.432 359.165 540.759 359.126C541.018 359.096 541.286 359.066 541.554 359.046C541.802 359.026 542.05 359.007 542.288 358.997C542.983 358.957 543.678 358.957 544.373 358.987C556.791 359.513 568.058 370.75 563.512 398.764C557.139 438.124 599.934 450.434 615.658 416.682C616.353 415.183 616.978 413.605 617.564 411.957C609.652 417.893 589.888 428.088 578.928 415.908C563.512 398.764 584.517 370.144 564.266 349.06C557.824 342.359 545.495 340.671 533.533 343.739C533.374 344.364 533.384 344.841 533.642 345.109Z" fill="#D3D4E2"/>
<path d="M479.976 564.696C463.781 564.696 447.02 559.958 431.055 550.81C429.117 549.699 428.446 547.226 429.557 545.287C430.668 543.349 433.137 542.677 435.079 543.789C467.509 562.374 503.331 560.428 526.344 538.833C546.741 519.692 551.238 491.174 538.08 464.406C537.166 462.549 536.245 460.687 535.324 458.824C520.904 429.682 505.994 399.548 516.198 373.469C521.354 360.288 536.806 352.182 549.935 355.77C555.47 357.283 573.099 364.902 567.508 399.417C564.404 418.579 573.761 428.592 582.716 431.345C592.144 434.244 604.847 430.301 611.986 414.971C619.262 399.347 620.071 371.463 607.542 348.397C600.553 335.532 586.634 319.409 560.016 315.665C536.242 312.319 514.342 319.647 499.912 335.764C484.174 353.343 479.154 379.111 486.14 406.461C487.994 413.716 491.57 423.085 495.356 433.006C505.531 459.664 517.063 489.88 508.14 508.436C504.718 515.555 496.221 521.102 485.969 522.915C471.033 525.555 455.472 520.25 443.274 508.36C441.674 506.8 441.641 504.238 443.2 502.639C444.761 501.038 447.321 501.006 448.921 502.565C459.234 512.616 472.222 517.129 484.56 514.947C492.175 513.6 498.57 509.669 500.848 504.93C508.261 489.512 496.914 459.781 487.796 435.891C483.924 425.748 480.269 416.168 478.3 408.463C470.635 378.455 476.314 349.99 493.883 330.366C510.143 312.205 534.663 303.928 561.142 307.652C591.098 311.865 606.775 330.035 614.652 344.535C627.035 367.33 628.955 397.699 619.322 418.387C610.127 438.133 593.118 443.01 580.339 439.08C567.322 435.079 555.837 420.863 559.521 398.123C562.566 379.328 558.185 366.413 547.802 363.576C538.635 361.073 527.39 367.072 523.733 376.417C514.833 399.166 528.937 427.67 542.576 455.236C543.501 457.105 544.425 458.973 545.342 460.837C559.905 490.463 554.621 523.394 531.881 544.733C519.885 555.992 504.526 562.776 487.466 564.353C484.987 564.582 482.487 564.696 479.976 564.696Z" fill="#212529"/>
<path d="M536.216 428.459C533.94 438.523 526.455 448.708 511.455 458.56C509.351 459.936 507.096 461.311 504.699 462.677C504.699 462.677 515.744 493.395 479.432 500C472.888 501.184 466.637 500.698 461.044 498.877C438.447 491.453 426.805 461.837 451.566 430.836C452.122 430.107 452.719 429.399 453.326 428.681C454.459 427.356 455.673 426.011 456.947 424.666C457.908 423.665 458.909 422.653 459.961 421.642C460.72 420.893 461.519 420.155 462.328 419.416C462.409 419.336 462.49 419.265 462.571 419.194C462.571 419.194 460.892 416.716 455.521 413.226C455.299 413.085 455.086 412.953 454.863 412.801H454.853C454.206 412.397 453.498 411.972 452.739 411.537C449.634 409.747 445.629 407.774 440.521 405.802L435.909 393.199L427.503 370.279L427.483 370.218L411.097 325.582C411.097 325.582 424.003 329.476 440.48 336.142C447.429 338.944 455.046 342.241 462.571 345.963C462.571 345.963 466.152 347.683 471.745 350.778C485.845 358.586 512.72 375.225 527.184 395.313C528.337 396.901 529.399 398.509 530.38 400.148C535.781 409.15 538.431 418.728 536.216 428.459Z" fill="#495057"/>
<path d="M459.648 344.537C449.027 349.523 436.344 353.468 422.284 356.047L411.097 325.582C411.097 325.582 424.003 329.476 440.48 336.141C446.529 338.579 453.083 341.391 459.648 344.537Z" fill="#343A40"/>
<path d="M462.328 419.416C462.409 419.335 462.49 419.264 462.571 419.194C462.571 419.194 460.892 416.715 455.521 413.226C455.299 413.084 455.086 412.953 454.864 412.801H454.853C454.206 412.396 453.498 411.972 452.739 411.537C449.634 409.746 445.629 407.774 440.521 405.802L435.909 393.199C438.104 388.354 440.511 385.35 442.989 385.44C451.344 385.734 463.208 409.746 481.061 410.1C481.061 410.1 471.29 413.903 459.961 421.641C460.72 420.893 461.519 420.155 462.328 419.416Z" fill="#343A40"/>
<path d="M504.699 462.676C504.699 462.676 515.748 493.393 479.433 500.001C472.893 501.187 466.635 500.701 461.047 498.874C438.444 491.45 426.803 461.84 451.563 430.831C459.036 440.238 480.745 463.191 511.453 458.556C509.354 459.935 507.099 461.316 504.699 462.676Z" fill="white"/>
<path d="M479.434 500C515.313 493.475 504.948 463.392 504.706 462.678L504.695 462.668C504.695 462.668 498.465 492.447 466.03 484.279C445.288 479.045 447.043 452.973 451.002 434.865C450.651 434.151 450.366 433.407 450.136 432.654C450.136 432.654 450.136 432.654 450.125 432.654C421.496 470.641 446.944 505.909 479.434 500Z" fill="#D3D4E2"/>
<path d="M472.477 504.677C457.625 504.678 444.227 496.78 437.73 483.6C430.224 468.375 431.529 443.715 456.758 419.102C454.326 417.119 449.849 414.096 442.26 410.873C440.204 410 439.244 407.624 440.117 405.568C440.99 403.512 443.362 402.55 445.424 403.426C460.918 410.006 465.458 416.224 465.926 416.912L467.9 419.821L465.295 422.182C440.412 444.727 438.49 466.842 444.987 480.022C451.068 492.358 464.297 498.64 478.707 496.018C488.933 494.159 495.915 490.123 499.457 484.025C504.67 475.053 500.925 464.139 500.886 464.029L499.762 460.838L502.7 459.154C523.244 447.49 533.418 434.491 532.937 420.519C531.683 384.043 461.536 349.948 460.827 349.608C436.031 337.404 410.193 329.535 409.935 329.457C407.796 328.81 406.586 326.552 407.233 324.413C407.88 322.275 410.134 321.061 412.276 321.712C412.54 321.791 438.989 329.842 464.364 342.33C467.401 343.786 539.593 378.882 541.024 420.234C541.596 436.776 530.964 451.694 509.413 464.606C510.501 469.545 511.583 479.191 506.5 488.011C501.725 496.296 492.86 501.668 480.155 503.979C477.572 504.449 475.003 504.677 472.477 504.677Z" fill="#212529"/>
<path d="M506.199 466.431C499.295 468.418 492.218 469.672 484.98 469.369C491.002 465.58 496.915 462.084 503.192 458.918C508.475 456.576 511.645 464.478 506.199 466.431Z" fill="#212529"/>
<path d="M460.449 415.748C467.167 413.345 473.953 410.907 481.059 410.1C475.009 413.393 469.784 418.076 464.691 422.638C459.57 426.812 454.418 418.443 460.449 415.748Z" fill="#212529"/>
<path d="M362.002 503.509C357.552 513.806 355.296 526.065 353.931 538.921C351.726 559.646 351.857 581.949 348.894 600.237C345.263 622.641 337.019 638.996 314.231 638.996C303.478 638.996 263.768 641.403 256.091 629.094C253.492 624.916 252.207 619.455 254.189 614.256C256.061 609.36 260.825 604.707 270.11 601.612C267.844 587.179 266.56 572.502 265.913 558.352C264.183 520.3 267.106 486.021 268.239 470.232L362.002 503.509Z" fill="#495057"/>
<path d="M353.931 538.921C351.726 559.646 351.857 581.949 348.894 600.237C345.263 622.641 337.019 638.996 314.231 638.996C303.478 638.996 263.768 641.404 256.091 629.094C253.492 624.917 252.207 619.455 254.189 614.256C256.728 618.231 264.547 623.511 287.619 625.625C330.1 629.519 339.719 606.67 339.022 587.927C338.253 566.98 316.83 557.704 315.899 543.038C315.667 539.478 337.676 538.881 353.931 538.921Z" fill="#343A40"/>
<path d="M350.846 583.102C346.992 613.194 344.261 638.996 314.231 638.996C303.479 638.996 263.779 641.414 256.092 629.094C253.492 624.926 252.218 619.455 254.2 614.266C256.739 618.241 264.568 623.51 287.619 625.624C328.867 629.407 339.133 607.964 339.052 589.565C343.624 587.886 347.619 585.742 350.846 583.102Z" fill="#E8E8E8"/>
<path d="M350.85 583.1C346.996 613.196 344.257 639.001 314.229 639.001C303.481 639.001 263.774 641.409 256.094 629.098C251.046 620.992 250.978 608.002 270.123 601.623C269.434 597.274 268.91 592.963 268.521 588.701C297.219 597.293 334.297 596.633 350.85 583.1Z" fill="white"/>
<path d="M350.846 583.102C346.992 613.194 344.261 638.996 314.231 638.996C303.479 638.996 263.779 641.414 256.092 629.094C253.492 624.926 252.218 619.455 254.2 614.266C256.739 618.241 264.568 623.51 287.619 625.624C328.867 629.407 339.133 607.964 339.052 589.565C343.624 587.886 347.619 585.742 350.846 583.102Z" fill="#D3D4E2"/>
<path d="M300.761 618.29C297.576 622.916 297.21 630.01 300.906 634.377C302.085 635.726 303.383 636.412 304.995 636.503C308.54 636.853 308.541 641.98 305.027 642.356C294.796 643.106 289.776 630.187 293.22 621.941C294.19 619.562 295.892 617.361 298.224 616.178C298.572 615.992 298.874 615.886 299.356 615.71C300.036 615.462 300.787 615.812 301.035 616.491C301.278 617.005 300.888 617.796 300.761 618.29Z" fill="#6B184E"/>
<path d="M274.649 614.497C271.759 617.611 270.804 621.686 271.495 625.964C272.026 629.599 273.847 633.982 277.278 635.217C280.831 636.273 279.676 641.498 276.028 640.958C266.232 638.951 263.087 626.017 266.508 617.779C267.683 615.275 269.702 613.18 272.277 612.177C272.652 612.025 272.972 611.941 273.458 611.812C274.227 611.609 275.017 612.069 275.22 612.839C275.414 613.487 275.046 614.043 274.649 614.497Z" fill="#6B184E"/>
<path d="M300.515 643.21C278.564 643.21 258.86 641.18 252.663 631.243C249.085 625.504 248.221 618.909 250.295 613.153C251.852 608.831 255.79 603.052 265.626 598.977C258.338 549.253 262.232 496.693 263.915 473.97L264.21 469.945C264.371 467.717 266.319 466.048 268.536 466.201C270.766 466.361 272.442 468.298 272.282 470.527L271.985 474.568C270.285 497.512 266.305 551.242 274.115 600.992L274.647 604.375L271.398 605.458C264.164 607.869 259.499 611.479 257.909 615.895C256.164 620.739 258.461 625.248 259.53 626.962C265.102 635.899 298.411 635.244 309.361 635.023C311.313 634.985 312.969 634.953 314.231 634.953C341.962 634.953 345.466 608.659 347.94 565.356C349.217 542.995 350.539 519.873 358.295 501.909C359.182 499.858 361.56 498.913 363.613 499.799C365.664 500.684 366.609 503.065 365.724 505.117C358.536 521.765 357.255 544.16 356.018 565.817C353.848 603.785 351.604 643.045 314.231 643.045C313.01 643.045 311.409 643.077 309.521 643.114C306.498 643.173 303.484 643.21 300.515 643.21Z" fill="#212529"/>
<path d="M300.761 618.29C297.576 622.916 297.21 630.01 300.906 634.377C302.085 635.726 303.383 636.412 304.995 636.503C308.54 636.853 308.541 641.98 305.027 642.356C294.796 643.106 289.776 630.187 293.22 621.941C294.19 619.562 295.892 617.361 298.224 616.178C298.572 615.992 298.874 615.886 299.356 615.71C300.036 615.462 300.787 615.812 301.035 616.491C301.278 617.005 300.888 617.796 300.761 618.29Z" fill="#212529"/>
<path d="M274.649 614.497C271.759 617.611 270.804 621.686 271.495 625.964C272.026 629.599 273.847 633.982 277.278 635.217C280.831 636.273 279.676 641.498 276.028 640.958C266.232 638.951 263.087 626.017 266.508 617.779C267.683 615.275 269.702 613.18 272.277 612.177C272.652 612.025 272.972 611.941 273.458 611.812C274.227 611.609 275.017 612.069 275.22 612.839C275.414 613.487 275.046 614.043 274.649 614.497Z" fill="#212529"/>
<path d="M449.418 485.852C450.292 510.663 456.984 577.127 460.199 603.368C477.726 609.032 479.693 622.266 473.832 631.864C466.273 644.244 423.614 642.473 412.891 641.761C371.586 639.018 364.961 545.487 364.031 541.231" fill="#495057"/>
<path d="M473.83 631.865C466.274 644.245 423.611 642.475 412.889 641.757C371.581 639.016 364.955 545.485 364.035 541.227L399.315 518.338C403.756 523.658 408.692 531.78 407.144 540.398C405.243 552.232 393.024 558.685 389.899 572.461C383.708 599.711 394.643 611.221 399.71 615.914C413.699 628.861 441.656 626.12 459.761 624.694C470.038 623.885 474.134 619.626 475.762 616.096C477.745 621.325 476.774 627.05 473.83 631.865Z" fill="#7C7C7C"/>
<path d="M473.83 631.865C466.274 644.245 423.611 642.475 412.889 641.757C371.581 639.016 364.955 545.485 364.035 541.227L399.315 518.338C403.756 523.658 408.692 531.78 407.144 540.398C405.243 552.232 393.024 558.685 389.899 572.461C383.708 599.711 394.643 611.221 399.71 615.914C413.699 628.861 441.656 626.12 459.761 624.694C470.038 623.885 474.134 619.626 475.762 616.096C477.745 621.325 476.774 627.05 473.83 631.865Z" fill="#343A40"/>
<path d="M473.839 631.865C466.273 644.246 423.609 642.476 412.888 641.758C390.757 640.291 378.589 612.759 371.903 586.855C375.423 588.625 380.733 590.739 388.269 592.428C389.553 605.82 396.107 612.587 399.708 615.915C413.697 628.861 441.654 626.12 459.759 624.694C470.046 623.885 474.142 619.627 475.771 616.087C477.743 621.316 476.772 627.051 473.839 631.865Z" fill="#E8E8E8"/>
<path d="M476.797 621.807C476.797 622.312 476.778 622.817 476.729 623.312C476.71 623.604 476.681 623.885 476.633 624.177C476.613 624.361 476.584 624.535 476.555 624.71C476.536 624.837 476.516 624.953 476.487 625.079C476.39 625.604 476.273 626.118 476.128 626.633C476.05 626.904 475.972 627.166 475.885 627.419C475.866 627.487 475.846 627.555 475.827 627.623C475.613 628.244 475.37 628.866 475.099 629.477C475.07 629.545 475.041 629.613 475.011 629.681C474.846 630.021 474.681 630.361 474.506 630.691C474.293 631.089 474.07 631.477 473.836 631.865C466.274 644.244 423.615 642.477 412.887 641.758C390.761 640.292 378.587 612.759 371.907 586.857C376.859 589.343 385.373 592.517 398.673 594.265C402.421 611.721 411.702 626.225 429.187 629.002C450.109 632.332 468.438 627.274 476.487 618.652C476.535 618.914 476.584 619.186 476.623 619.448C476.662 619.711 476.7 619.973 476.72 620.245C476.749 620.507 476.768 620.769 476.778 621.041C476.788 621.293 476.797 621.545 476.797 621.807Z" fill="#686868"/>
<path d="M473.836 631.865C466.274 644.244 423.615 642.477 412.887 641.758C390.761 640.292 378.587 612.759 371.907 586.857C382.13 591.993 407.557 600.061 458.837 592.381C459.312 596.168 459.769 599.867 460.196 603.371C477.73 609.031 479.691 622.264 473.836 631.865Z" fill="white"/>
<path d="M473.839 631.865C466.273 644.246 423.609 642.476 412.888 641.758C390.757 640.291 378.589 612.759 371.903 586.855C375.423 588.625 380.733 590.739 388.269 592.428C389.553 605.82 396.107 612.587 399.708 615.915C413.697 628.861 441.654 626.12 459.759 624.694C470.046 623.885 474.142 619.627 475.771 616.087C477.743 621.316 476.772 627.051 473.839 631.865Z" fill="#D3D4E2"/>
<path d="M453.461 485.71C455.34 524.819 459.908 563.956 464.087 602.892L461.403 599.642C471.771 602.697 481.485 611.136 480.736 622.855C480.497 627.158 479.143 631.032 476.8 634.603C474.302 638.188 470.16 640.296 466.446 641.685C459.573 644.171 452.293 645.105 445.175 645.729C435.834 646.488 426.528 646.511 417.19 646.134C400.31 646.495 389.076 636.542 381.077 622.659C368.624 600.586 362.517 570.061 362.06 544.919C362.074 544.191 362.031 542.41 362.055 541.663C361.928 540.446 362.797 539.282 364.074 539.302C365.003 539.306 365.781 539.942 366.008 540.8L366.272 541.802C366.771 543.765 367.185 545.751 367.603 547.722C373.233 573.137 380.123 623.499 405.611 635.74C409.479 637.507 413.159 637.686 417.564 637.883C422.066 638.1 426.584 638.203 431.085 638.182C441.397 637.949 463.476 637.729 470.262 630.032C476.903 619.413 469.945 610.384 458.995 607.096C458.996 607.094 456.635 606.3 456.635 606.3C455.202 595.7 454.047 585.071 452.911 574.464C450.24 545.866 446.778 514.575 445.374 485.995C445.294 480.682 453.101 480.251 453.461 485.71Z" fill="#212529"/>
<path d="M428.654 617.459C437.54 620.981 437.735 633.897 431.913 640.396C430.859 641.569 429.529 642.614 427.965 643.295C425.352 644.502 420.155 645.018 420.338 640.9C420.479 639.385 421.748 638.273 423.215 638.235C426.668 637.949 428.718 634.463 429.463 631.169C430.323 627.369 429.377 623.259 427.248 620.039L426.952 619.073C426.61 618.075 427.686 617.07 428.654 617.459Z" fill="#212529"/>
<path d="M454.554 614.575C464.334 617.326 464.568 630.589 459.979 637.98C458.257 640.768 455.394 643.188 451.983 643.72C450.383 643.989 448.869 642.91 448.6 641.31C448.341 639.794 449.305 638.38 450.734 637.98C454.166 636.741 455.983 632.363 456.516 628.727C457.207 624.451 456.251 620.372 453.362 617.26L453.047 616.855C452.18 615.82 453.285 614.191 454.554 614.575Z" fill="#212529"/>
<path d="M462.859 500.408L463.486 500.651C463.416 500.631 463.183 500.56 462.859 500.408Z" fill="white"/>
<path d="M429.888 287.429C423.462 305.355 434.469 346.112 442.986 386C449.468 416.357 469.871 483.136 432.982 522.881C393.337 565.595 292.745 560.449 270.155 501.42C262.27 480.816 258.891 446.941 288.709 371.166C297.128 349.77 308.194 325.033 322.553 296.311" fill="#495057"/>
<path d="M435.739 353.053C420.283 357.129 402.583 359.435 383.769 359.435C350.866 359.435 321.351 352.365 301.304 341.178C307.413 327.412 314.463 312.493 322.555 296.309L429.892 287.429C425.25 300.376 429.69 325.227 435.739 353.053Z" fill="#343A40"/>
<path d="M303.324 310.814C303.324 310.814 299.583 320.34 311.714 349.338C326.249 384.085 244.424 475.678 308.858 518.338C337.884 537.555 392.869 540.393 418.335 513.315C437.773 492.646 440.078 458.76 428.806 419.193C424.083 402.614 415.003 380.515 422.856 366.949C436.536 343.321 461.3 331.463 458.449 317.564C454.467 298.147 303.324 310.814 303.324 310.814Z" fill="white"/>
<path d="M432.198 353.943C417.603 357.463 401.166 359.436 383.769 359.436C355.428 359.436 329.615 354.196 310.195 345.599C299.908 319.513 303.327 310.814 303.327 310.814C303.327 310.814 454.471 298.15 458.446 317.56C460.722 328.646 445.429 338.437 432.198 353.943Z" fill="#D3D4E2"/>
<path d="M268.265 501.582C255.599 481.506 260.745 447.372 266.243 425.411C270.436 409.065 275.723 392.663 282.986 377.42C284.223 374.881 285.458 372.344 286.826 369.864C287.371 368.878 288.611 368.52 289.597 369.064C290.412 369.514 290.798 370.438 290.602 371.302C288.653 379.523 286.124 387.456 283.709 395.501C279.999 407.196 276.595 419.526 273.885 431.503C270.34 448.839 267.502 466.467 269.781 484.036C270.352 489.367 271.198 494.63 272.046 500.148C272.401 502.291 269.437 503.456 268.265 501.582Z" fill="#212529"/>
<path d="M407.974 542.236C381.189 557.823 342.809 559.091 315.187 544.936C313.131 543.83 314.292 540.63 316.59 541.143C331.479 544.563 346.45 546.43 361.658 545.968C368.991 545.786 376.943 545.093 384.152 543.864C391.606 542.623 398.964 540.817 406.307 538.55C408.564 537.832 410.023 541.007 407.974 542.236Z" fill="#212529"/>
<path d="M444.964 385.017C456.705 416.945 467.904 473.148 448.013 503.183C447.363 504.115 446.08 504.343 445.148 503.693C444.432 503.193 444.131 502.32 444.325 501.519C445.419 496.714 446.533 492.073 447.39 487.368C452.309 463.617 449.624 439.028 445.447 415.302C443.757 405.618 441.76 395.703 441.007 385.861C440.84 383.553 444.167 382.807 444.964 385.017Z" fill="#212529"/>
<path d="M554.101 261.105C541.311 323.24 478.076 335.618 430.572 340.251C411.103 342.15 391.49 342.018 372.033 340.003C352.547 337.985 333.297 334.085 314.603 328.227C289.102 320.235 259.285 308.854 238.025 289.247C230.652 282.45 224.308 274.666 219.523 265.692C216.12 259.299 213.51 252.297 211.881 244.614C210.786 239.409 210.142 233.895 210.011 228.038C209.96 225.815 209.982 223.545 210.086 221.223C210.38 214.423 211.349 207.191 213.064 199.512C214.55 192.859 222.093 170.351 231.46 148.497C234.647 141.054 238.046 133.686 241.491 127.053C236.098 81.6884 237.812 25.4349 254.809 7.75125C265.862 -3.74748 290.978 11.5418 327.465 49.9897C357.365 40.3588 396.637 43.6804 402.649 44.3257C408.665 44.9259 447.785 49.721 475.07 65.2728C518.66 35.1159 546.376 25.2969 554.839 38.8163C567.852 59.6072 558.004 115.018 543.431 158.315C551.346 186.663 556.284 225.924 556.41 235.063C556.539 244.596 555.727 253.25 554.101 261.105Z" fill="#495057"/>
<g opacity="0.5">
<path d="M559.281 91.6796C560.62 73.9095 559.221 58.7965 553.686 49.9568C545.223 36.4374 517.507 46.2564 473.917 76.413C446.632 60.8611 407.512 56.0662 401.496 55.466C395.484 54.8206 356.212 51.4991 326.311 61.13C289.825 22.6823 264.708 7.39279 253.656 18.8917C246.426 26.4099 241.961 40.9158 239.63 58.5831C241.411 35.9581 246.107 16.8031 254.809 7.75076C265.862 -3.74797 290.979 11.5413 327.465 49.9892C357.365 40.3583 396.638 43.6799 402.649 44.3252C408.666 44.9254 447.785 49.7205 475.071 65.2723C518.661 35.1154 546.377 25.2964 554.839 38.8158C561.502 49.4591 562.174 69.1697 559.281 91.6796Z" fill="white"/>
</g>
<path d="M554.101 261.105C541.311 323.24 478.076 335.618 430.572 340.251C411.103 342.149 391.491 342.017 372.034 340.003C352.547 337.985 333.297 334.085 314.603 328.227C289.102 320.235 259.285 308.854 238.025 289.246C230.652 282.45 224.308 274.666 219.523 265.691C216.12 259.298 213.51 252.296 211.881 244.613C210.787 239.409 210.142 233.895 210.011 228.038C271.618 293.112 323.119 272.117 349.535 230.016C359.735 213.764 376.497 213.835 383.698 214.581C390.9 215.326 407.321 218.691 413.967 236.687C431.44 283.971 478.633 315.299 554.101 261.105Z" fill="white"/>
<path d="M543.516 288.707C520.266 327.19 470.086 336.387 430.682 340.239C411.175 342.146 391.525 342.021 372.029 340.002C352.546 337.985 333.299 334.085 314.608 328.228C289.106 320.236 259.287 308.855 238.025 289.246C230.652 282.45 224.308 274.666 219.524 265.691C217.673 262.21 216.053 258.554 214.697 254.699C217.901 258.617 221.395 262.291 225.127 265.732C248.365 287.165 334.985 305.692 375.145 309.85C415.306 314.008 515.072 311.719 543.516 288.707Z" fill="#D3D4E2"/>
<path d="M292.273 125.206C290.57 121.833 306.948 94.9346 331.437 105.914C340.257 109.869 340.195 118.862 332.919 120.029C325.986 121.141 323.1 119.367 312.265 121.964C306.134 123.433 293.976 128.58 292.273 125.206Z" fill="#212529"/>
<path d="M494.107 146.104C496.465 143.151 485.946 113.468 459.727 119.197C450.283 121.26 448.502 130.076 455.384 132.709C461.942 135.218 465.131 134.072 475.204 138.834C480.903 141.528 491.749 149.057 494.107 146.104Z" fill="#212529"/>
<path d="M282.741 79.1656C269.071 91.0201 259.41 108.588 258.537 106.328C258.452 106.111 258.371 105.854 258.294 105.555C256.585 99.2967 255.202 75.0456 257.454 53.8023C257.825 50.3771 258.232 47.3603 258.689 44.7117C259.916 37.5598 261.424 33.0515 262.99 30.2296C264.927 26.783 268.545 26.0446 271.519 27.5825C279.424 31.6842 301.225 49.5436 307.817 60.2174C308.994 62.115 296.42 67.3122 282.741 79.1656Z" fill="#F27E80"/>
<path d="M282.741 79.1658C269.072 91.0203 259.411 108.588 258.538 106.328C258.453 106.111 258.372 105.854 258.295 105.555C262.204 94.6934 271.367 80.0813 278.318 69.5506C287.82 55.1714 278.204 41.9379 269.144 37.3306C266.037 35.7477 261.633 40.666 258.689 44.7117C259.916 37.5598 261.424 33.0514 262.991 30.2296C264.928 26.783 268.545 26.0446 271.519 27.5825C279.424 31.6842 301.226 49.5436 307.818 60.2174C308.994 62.1152 296.421 67.3124 282.741 79.1658Z" fill="#FF5C64"/>
<path d="M258.965 111.136C258.694 111.136 258.413 111.115 258.118 111.074C256.376 110.833 254.894 109.648 254.25 107.981C252.031 102.229 250.538 75.4526 252.89 53.3199C254.161 41.3557 256.153 33.072 258.98 27.9961C262.025 22.5696 268.182 20.6836 273.63 23.507C282.034 27.8591 304.491 46.081 311.732 57.7999C312.499 59.0405 313.795 62.3048 309.292 65.8242C307.991 66.8412 306.17 68.0079 303.866 69.4848C299.113 72.5297 292.605 76.7004 285.756 82.6392C278.236 89.1588 271.883 97.6353 267.678 103.245C263.438 108.9 261.762 111.135 258.965 111.136ZM268.483 31.4128C267.897 31.4128 267.401 31.7689 267.002 32.4797C265.508 35.1625 263.426 41.1355 262.028 54.291C260.355 70.0286 260.763 86.3091 261.585 96.053C265.992 90.2038 272.221 82.2115 279.735 75.6959C287.086 69.3213 294.201 64.7633 298.908 61.7471C299.923 61.0963 301.003 60.4041 301.919 59.7942C294.067 49.6857 275.835 34.9979 269.405 31.6672C269.077 31.4974 268.769 31.4128 268.483 31.4128Z" fill="#212529"/>
<path d="M513.297 103.037C524.248 117.441 530.105 136.615 531.422 134.582C531.55 134.388 531.682 134.152 531.818 133.876C534.773 128.1 541.096 104.647 543.244 83.3927C543.582 79.9641 543.802 76.9278 543.898 74.2419C544.162 66.9903 543.61 62.2687 542.655 59.1858C541.465 55.4155 538.076 53.9516 534.849 54.8475C526.272 57.2425 501.274 70.2564 492.635 79.3532C491.095 80.9697 502.337 88.6327 513.297 103.037Z" fill="#F27E80"/>
<path d="M513.298 103.037C524.248 117.441 530.105 136.615 531.422 134.582C531.55 134.388 531.682 134.152 531.818 133.876C530.217 122.443 524.243 106.264 519.596 94.5323C513.242 78.5114 525.365 67.5286 535.178 64.8756C538.543 63.9628 541.845 69.6789 543.898 74.2419C544.162 66.9903 543.61 62.2687 542.655 59.1858C541.465 55.4155 538.076 53.9516 534.849 54.8475C526.272 57.2425 501.274 70.2564 492.635 79.3532C491.095 80.9697 502.337 88.6327 513.298 103.037Z" fill="#FF5C64"/>
<path d="M531.19 139.325C531.08 139.325 530.97 139.321 530.86 139.314C527.493 139.081 526.388 136.715 523.108 129.692C520.142 123.34 515.659 113.742 509.635 105.819C504.148 98.6039 498.633 93.188 494.605 89.2338C492.651 87.3163 491.109 85.8015 490.043 84.5392C486.358 80.172 488.295 77.2424 489.299 76.1856C498.789 66.199 524.502 52.9643 533.619 50.4261C539.527 48.7799 545.172 51.8859 547.034 57.8102C548.766 63.3673 549.018 71.883 547.812 83.8563C545.579 106.001 538.632 131.903 535.28 137.078C534.369 138.484 532.825 139.325 531.19 139.325ZM498.496 80.1484C499.267 80.9333 500.182 81.8314 501.042 82.6765C505.032 86.5929 511.061 92.5121 516.951 100.257C522.97 108.174 527.43 117.273 530.545 123.901C533.345 114.532 537.08 98.6805 538.668 82.9344C539.995 69.7698 539.181 63.4981 538.263 60.5549C537.905 59.4104 537.174 58.9773 536.083 59.2794C529.106 61.2217 508.254 71.8621 498.496 80.1484Z" fill="#212529"/>
<path d="M411.982 339.413C423.457 336.809 434.932 335.896 446.493 334.266C457.942 332.591 469.295 330.412 480.261 327.141C523.112 314.646 549.803 288.707 551.794 242.613C551.811 240.223 551.938 236.558 551.867 234.175C549.959 209.096 545.69 183.784 539.537 159.402L539.21 158.161L539.599 157.024C549.033 128.604 564.429 70.7611 552.61 43.192C544.599 21.9883 488.96 60.7161 477.375 68.6007L475.298 70.034L473.069 68.7889C451.402 56.977 426.576 51.3638 402.231 48.3459C377.783 46.3103 352.335 46.7199 328.706 53.8415L326.27 54.6038C319.664 47.6262 312.901 40.738 305.883 34.2386C296.604 25.8593 271.925 3.24393 259.655 9.0882C250.262 15.4458 246.22 36.9875 244.793 48.083C241.565 74.0728 242.561 100.556 245.509 126.574L245.648 127.791L245.084 128.915C235.153 148.948 227.022 170.212 220.065 191.468C213.391 211.933 211.981 235.076 219.758 255.323C231.798 286.787 263.29 304.828 293.276 316.584C303.678 320.749 314.308 324.6 324.732 329.102C326.9 330.007 325.954 333.338 323.632 332.992C317.955 332.128 312.306 330.94 306.777 329.402C246.545 311.877 194.986 275.791 207.24 205.857C208.148 200.114 209.697 194.206 211.53 188.73C215.063 177.786 219.147 167.116 223.473 156.483C227.821 145.886 232.468 135.395 237.902 125.188L237.475 127.529C233.869 95.601 230.565 34.0206 249.68 7.56101C260.216 -7.34245 279.071 3.02728 290.474 11.0736C305.245 21.582 317.957 34.2327 330.401 47.2054L326.225 46.1395C332.504 44.172 338.878 42.761 345.275 41.7038C383.501 35.9307 423.107 40.0317 459.339 53.5139C465.384 55.8591 471.332 58.5465 477.076 61.7583L472.77 61.9466C480.112 56.8812 487.572 51.9615 495.26 47.3405C506.938 40.4594 519.047 33.7038 532.4 30.198C552.762 25.2054 560.736 33.9162 563.91 53.5384C568.108 87.3193 557.613 127.501 547.269 159.604C547.269 159.604 547.33 157.226 547.33 157.226C548.968 162.959 550.416 168.717 551.737 174.493C555.932 194.487 559.698 214.583 560.915 235.055C560.865 237.071 560.858 240.98 560.808 242.995C560.545 246.465 560.337 250.901 559.778 254.343C559.602 255.336 559.382 257.814 559.108 258.868C553.288 293.215 531.587 316.725 499.745 329.579C477.535 338.573 453.642 342.332 429.949 344.22C424.015 344.512 418.049 344.402 412.113 343.457C409.873 343.066 409.823 339.904 411.982 339.413Z" fill="#212529"/>
<path d="M411.708 248.975C411.708 248.975 409.826 267.221 393.605 264.569C382.114 262.695 380.701 252.93 380.607 252.145C380.348 252.893 376.964 262.162 365.332 261.641C348.905 260.913 350.801 242.669 350.801 242.669L383.567 222.165L383.845 222.194L411.708 248.975Z" fill="#D3D4E2"/>
<path d="M411.531 249.08C411.531 249.08 404.77 262.411 392.714 257.896C378.989 252.757 382.461 236.11 382.461 236.11L381.939 236.055C381.939 236.055 381.859 253.06 367.364 255.221C354.63 257.119 350.801 242.67 350.801 242.67C350.801 242.67 350.553 211.146 384.341 214.644C418.129 218.142 411.531 249.08 411.531 249.08Z" fill="white"/>
<path d="M409.62 252.013C406.821 255.649 401.024 261.01 392.721 257.894C378.986 252.756 382.458 236.106 382.458 236.106L381.943 236.053C381.943 236.053 381.863 253.065 367.362 255.224C358.601 256.529 354.048 250.085 352.066 245.943C354.429 246.409 357.041 246.492 359.939 246.062C383.876 242.491 383.495 219.36 383.495 219.36L384.359 219.449C384.359 219.449 379.139 241.989 401.804 250.485C404.583 251.524 407.189 251.993 409.62 252.013Z" fill="#D3D4E2"/>
<path d="M353.022 242.082C355.974 248.188 360.931 253.466 368.192 251.443C375.244 250.026 378.631 242.371 379.676 235.845C379.885 234.593 381.071 233.747 382.323 233.957C384.908 234.44 384.252 237.661 384.218 239.51C383.926 242.96 383.111 246.281 381.357 249.396C378.553 254.82 372.428 258.598 366.234 258.834C358.518 259.6 351.672 253.655 349.457 246.643C348.846 244.724 347.445 241.246 350.45 240.603C351.586 240.4 352.61 241.076 353.022 242.082Z" fill="#212529"/>
<path d="M413.58 250.119C409.791 259.798 399.344 265.521 389.604 260.325C381.567 256.695 378.212 247.214 379.511 239.013C379.664 237.876 379.863 236.857 380.212 235.64C380.974 233.049 384.831 233.701 384.719 236.375C384.347 243.587 386.353 251.898 393.812 254.534C400.144 257.204 405.915 252.736 409.669 247.812C411.315 245.787 414.554 247.727 413.58 250.119Z" fill="#212529"/>
<path d="M400.127 229.057C399.707 233.037 394.144 236.005 389.126 237.892C383.877 239.864 378.292 239.275 373.57 236.25C369.057 233.358 364.235 229.293 364.656 225.313C365.923 213.308 401.394 217.052 400.127 229.057Z" fill="#212529"/>
<g opacity="0.5">
<path d="M389.673 225.573C389.552 226.72 387.386 227.517 385.424 228.006C383.371 228.518 381.157 228.284 379.256 227.355C377.439 226.467 375.487 225.236 375.608 224.088C375.974 220.626 390.038 222.111 389.673 225.573Z" fill="white"/>
</g>
<path d="M338.401 207.083C340.199 189.717 329.421 174.373 314.328 172.81C299.235 171.247 285.542 184.058 283.744 201.423C281.946 218.789 292.724 234.134 307.816 235.697C322.909 237.26 336.602 224.449 338.401 207.083Z" fill="#212529"/>
<path d="M330.814 199.671C331.575 192.322 327.749 185.904 322.267 185.336C316.785 184.769 311.725 190.266 310.964 197.616C310.203 204.965 314.03 211.383 319.511 211.95C324.993 212.518 330.053 207.02 330.814 199.671Z" fill="white"/>
<g opacity="0.35">
<path d="M300.719 222.628C305.193 222.184 308.336 216.962 307.741 210.964C307.145 204.966 303.036 200.464 298.563 200.908C294.089 201.353 290.946 206.575 291.541 212.573C292.137 218.57 296.246 223.072 300.719 222.628Z" fill="white"/>
</g>
<path d="M461.205 247.38C476.329 246.157 487.448 231.059 486.041 213.659C484.634 196.258 471.233 183.143 456.11 184.366C440.986 185.589 429.867 200.687 431.274 218.087C432.682 235.488 446.082 248.603 461.205 247.38Z" fill="#212529"/>
<path d="M450.046 223.38C455.539 222.936 459.509 216.606 458.913 209.242C458.317 201.878 453.382 196.268 447.89 196.713C442.397 197.157 438.427 203.487 439.023 210.851C439.618 218.215 444.553 223.824 450.046 223.38Z" fill="white"/>
<g opacity="0.35">
<path d="M477.988 224.68C478.718 218.697 475.692 213.406 471.23 212.862C466.768 212.317 462.559 216.726 461.829 222.709C461.099 228.691 464.125 233.983 468.587 234.527C473.049 235.071 477.258 230.663 477.988 224.68Z" fill="white"/>
</g>
<path d="M231.444 221.835C215.678 211.248 197.274 204.714 178.54 201.88C173.52 201.216 167.986 200.736 162.949 200.506C161.448 200.366 159.223 200.444 157.715 200.434C155.922 200.448 154.125 200.423 152.324 200.406C149.803 200.338 149.629 196.649 152.169 196.372C155.215 196.089 158.552 195.857 161.617 195.629C167.484 195.487 173.412 195.679 179.256 196.26C184.476 196.953 190.267 197.859 195.331 199.204C207.632 202.392 219.667 207.481 229.825 215.197C231.303 216.301 232.683 217.435 234.1 218.783C234.911 219.552 234.943 220.833 234.173 221.644C233.442 222.415 232.254 222.472 231.444 221.835Z" fill="#3A3A3A"/>
<path d="M233.299 249.302C218.513 246.308 202.899 244.997 187.993 247.879C179.076 249.588 170.563 252.966 162.958 258.003C160.83 259.349 158.631 256.396 160.565 254.744C178.301 240.075 203.443 237.543 225.281 242.603C228.427 243.35 231.468 244.224 234.565 245.459C235.604 245.874 236.109 247.052 235.695 248.092C235.312 249.056 234.27 249.554 233.299 249.302Z" fill="#212529"/>
<path d="M531.872 249.614C554.178 236.72 584.356 235.739 608.866 242.177C611.362 242.9 614.186 243.699 616.658 244.465C617.726 244.787 618.33 245.915 618.008 246.983C617.691 248.042 616.587 248.627 615.545 248.355C613.075 247.873 610.31 247.292 607.836 246.76L606.556 246.488C602.664 246.004 598.813 245.182 594.906 244.934L589.718 244.454C586.695 244.367 582.301 244.1 579.318 244.248C564.644 244.432 549.93 247.087 536.175 252.209C535.341 252.527 534.491 252.864 533.74 253.192C531.47 254.144 529.764 250.958 531.872 249.614Z" fill="#212529"/>
<path d="M525.953 275.63C551.159 271.981 580.065 279.499 596.481 299.878C598.029 301.851 595.29 304.346 593.478 302.585C589.179 298.275 584.392 294.524 579.132 291.55C568.607 285.446 556.695 282.337 544.667 280.801C538.602 280.025 532.356 279.641 526.304 279.65C523.864 279.625 523.534 276.083 525.953 275.63Z" fill="#212529"/>
<path d="M283.685 213.938L25.3985 239.572C19.8396 240.124 14.886 236.065 14.3343 230.506L4.09658 127.355C3.54488 121.796 7.60406 116.842 13.163 116.29L271.449 90.6557C277.008 90.104 281.962 94.1631 282.514 99.7221L292.751 202.873C293.303 208.432 289.244 213.386 283.685 213.938Z" fill="white"/>
<path d="M24.3883 243.668C17.2044 243.668 11.0329 238.202 10.3085 230.905L0.0707896 127.754C-0.302859 123.99 0.811277 120.306 3.20894 117.381C5.60661 114.455 8.99958 112.638 12.7625 112.264L271.05 86.6297C274.815 86.254 278.498 87.3706 281.424 89.7683C284.35 92.1655 286.166 95.5589 286.539 99.3233L296.776 202.474C297.15 206.237 296.036 209.922 293.639 212.847C291.242 215.773 287.849 217.59 284.085 217.963L25.7985 243.598C25.3252 243.645 24.8546 243.668 24.3883 243.668ZM272.46 94.6519C272.257 94.6519 272.053 94.662 271.85 94.682L13.5624 120.317C11.9496 120.477 10.4948 121.255 9.4671 122.509C8.44044 123.763 7.96198 125.342 8.12209 126.955L18.3596 230.106C18.5197 231.719 19.2996 233.173 20.5528 234.201C21.806 235.228 23.3786 235.708 24.9986 235.546L283.285 209.911C284.899 209.751 286.352 208.973 287.38 207.719C288.408 206.465 288.885 204.886 288.725 203.273L278.488 100.122C278.327 98.5081 277.549 97.0543 276.295 96.0268C275.2 95.13 273.857 94.6519 272.46 94.6519Z" fill="#212529"/>
<path d="M110.759 214.588C108.521 214.588 106.621 213.137 106.032 210.977C101.82 195.553 92.8501 183.361 87.8775 177.466C86.6373 175.996 86.3693 174 87.1783 172.26C87.9802 170.536 89.714 169.423 91.5969 169.423C91.9162 169.423 92.2395 169.454 92.5569 169.516C102.885 171.54 111.718 174.337 116.754 176.095L118.438 175.144L113.505 166.531C111.856 163.649 112.859 159.966 115.738 158.318C116.646 157.798 117.679 157.522 118.725 157.522C120.877 157.522 122.879 158.682 123.948 160.548L128.918 169.227L129.534 168.878L121.028 154.022C120.229 152.627 120.02 151.004 120.442 149.453C120.863 147.902 121.864 146.608 123.259 145.809C124.17 145.288 125.202 145.013 126.247 145.013C128.401 145.013 130.403 146.173 131.471 148.042L140.014 162.961L140.547 162.66L130.113 144.438C129.315 143.043 129.106 141.42 129.528 139.868C129.95 138.318 130.95 137.023 132.346 136.225C133.253 135.705 134.287 135.429 135.333 135.429C137.487 135.429 139.489 136.589 140.557 138.457L151.028 156.741L152.382 155.977C147.725 147.063 144.485 139.071 142.527 133.736C141.746 131.617 141.975 129.293 143.155 127.363C144.332 125.436 146.294 124.175 148.535 123.903C152.73 123.39 157.085 123.13 161.475 123.13C179.021 123.13 193.51 127.154 200.585 129.554C203.858 130.673 205.901 133.839 205.56 137.257C203.079 161.984 189.609 179.54 183.933 185.941C182.54 187.519 180.529 188.427 178.422 188.427C176.376 188.427 174.401 187.564 173.004 186.06C167.855 180.5 162.924 173.913 158.321 166.445L157.008 167.186L167.376 185.293C168.175 186.688 168.384 188.311 167.963 189.862C167.541 191.414 166.54 192.708 165.144 193.507C164.234 194.027 163.202 194.302 162.157 194.302C160.003 194.302 158.001 193.142 156.932 191.273L146.528 173.104L145.996 173.405L153.485 186.486C154.284 187.879 154.492 189.501 154.071 191.053C153.65 192.604 152.65 193.899 151.255 194.698C150.341 195.22 149.308 195.494 148.267 195.494C146.112 195.494 144.11 194.334 143.041 192.465L135.516 179.323L134.898 179.671L139.62 187.918C140.419 189.312 140.627 190.935 140.206 192.486C139.785 194.037 138.784 195.332 137.389 196.13C136.478 196.652 135.445 196.927 134.401 196.927C132.249 196.927 130.248 195.767 129.178 193.9L124.419 185.589L122.44 186.706C121.236 196.139 117.476 206.226 115.258 211.577C114.502 213.405 112.735 214.588 110.759 214.588Z" fill="#212529"/>
<path d="M161.475 126.331C178.99 126.331 193.484 130.526 199.558 132.585C201.392 133.213 202.567 135.007 202.374 136.939C200.016 160.447 187.462 177.138 181.538 183.817C180.709 184.757 179.566 185.226 178.422 185.226C177.302 185.226 176.181 184.778 175.349 183.882C169.103 177.138 163.815 169.522 159.455 162.128L152.629 165.982L164.599 186.884C165.372 188.235 164.905 189.955 163.554 190.729C163.113 190.981 162.631 191.101 162.157 191.101C161.181 191.101 160.231 190.593 159.711 189.684L147.725 168.752L141.617 172.201L150.708 188.076C151.481 189.426 151.014 191.147 149.664 191.92C149.221 192.173 148.741 192.293 148.267 192.293C147.289 192.293 146.339 191.784 145.82 190.876L136.712 174.971L130.521 178.468L136.842 189.509C137.616 190.859 137.148 192.58 135.799 193.352C135.356 193.605 134.876 193.726 134.401 193.726C133.424 193.726 132.475 193.216 131.954 192.308L125.616 181.238L119.441 184.724C118.557 194.051 114.729 204.494 112.301 210.351C112.012 211.05 111.385 211.387 110.759 211.387C110.052 211.387 109.345 210.958 109.12 210.136C104.717 194.013 95.3091 181.312 90.3241 175.403C89.3742 174.276 90.2253 172.624 91.5965 172.624C91.7084 172.624 91.8233 172.635 91.9411 172.658C103.209 174.866 112.695 178.028 117.058 179.6L122.816 176.349L116.283 164.94C115.51 163.59 115.977 161.869 117.327 161.097C117.769 160.844 118.25 160.724 118.725 160.724C119.701 160.724 120.651 161.233 121.172 162.141L127.721 173.579L133.913 170.082L123.805 152.431C123.031 151.081 123.5 149.36 124.85 148.587C125.291 148.334 125.773 148.214 126.247 148.214C127.223 148.214 128.173 148.723 128.693 149.631L138.818 167.312L144.926 163.863L132.891 142.847C132.117 141.497 132.586 139.776 133.936 139.003C134.377 138.75 134.859 138.63 135.333 138.63C136.309 138.63 137.259 139.139 137.779 140.047L149.831 161.093L156.676 157.227C151.182 147.143 147.487 137.96 145.532 132.633C144.607 130.123 146.265 127.402 148.92 127.081C153.223 126.554 157.428 126.331 161.475 126.331ZM161.475 119.929C156.957 119.929 152.47 120.197 148.145 120.725C144.931 121.115 142.115 122.926 140.424 125.694C139.067 127.913 138.587 130.497 139.027 133.003C137.879 132.5 136.624 132.228 135.333 132.228C133.729 132.228 132.146 132.65 130.752 133.448C128.619 134.67 127.085 136.653 126.44 139.029C126.189 139.949 126.084 140.886 126.119 141.813C124.562 141.835 123.026 142.254 121.671 143.03C119.531 144.255 117.999 146.237 117.353 148.613C116.827 150.547 116.94 152.552 117.66 154.383C116.426 154.528 115.229 154.921 114.146 155.542C109.736 158.065 108.202 163.708 110.725 168.12L112.569 171.338C107.459 169.732 100.706 167.852 93.1718 166.375C92.6519 166.273 92.122 166.222 91.5961 166.222C88.473 166.222 85.599 168.062 84.2752 170.911C82.9353 173.793 83.3775 177.096 85.4298 179.53C90.2321 185.223 98.8931 196.989 102.944 211.822C103.901 215.334 107.115 217.789 110.759 217.789C114.034 217.789 116.962 215.831 118.216 212.801C120.078 208.306 123.002 200.549 124.693 192.51L126.398 195.489C128.04 198.352 131.106 200.127 134.401 200.127C136.001 200.127 137.583 199.707 138.976 198.91C140.177 198.223 141.186 197.297 141.956 196.196C143.642 197.776 145.894 198.695 148.267 198.695C149.864 198.695 151.444 198.275 152.836 197.481C153.994 196.818 154.972 195.936 155.729 194.892C157.428 196.54 159.729 197.503 162.157 197.503C163.758 197.503 165.34 197.082 166.733 196.285C168.872 195.061 170.406 193.078 171.052 190.701C171.212 190.112 171.312 189.517 171.355 188.921C173.293 190.653 175.817 191.628 178.422 191.628C181.447 191.628 184.332 190.326 186.337 188.054C192.211 181.432 206.171 163.233 208.745 137.578C209.233 132.67 206.308 128.128 201.63 126.528C194.351 124.06 179.481 119.929 161.475 119.929Z" fill="#212529"/>
<path d="M199.558 132.585C192.081 130.05 171.849 124.28 148.921 127.08C146.265 127.402 144.607 130.122 145.533 132.633C147.487 137.96 151.182 147.142 156.676 157.227L149.831 161.093L137.78 140.047C137.006 138.696 135.285 138.229 133.936 139.003C132.586 139.775 132.118 141.496 132.891 142.847L144.926 163.863L138.818 167.312L128.694 149.631C127.92 148.281 126.2 147.814 124.85 148.587C123.499 149.36 123.032 151.081 123.805 152.431L133.913 170.082L127.721 173.579L121.171 162.141C120.398 160.791 118.677 160.323 117.327 161.096C115.977 161.869 115.51 163.59 116.283 164.94L122.816 176.349L117.059 179.6C112.695 178.028 103.209 174.866 91.9412 172.658C90.3769 172.351 89.2966 174.184 90.3243 175.403C95.3092 181.312 104.718 194.013 109.12 210.136C109.543 211.688 111.685 211.838 112.301 210.351C114.729 204.494 118.558 194.051 119.441 184.724L125.615 181.238L131.954 192.308C132.475 193.217 133.424 193.726 134.401 193.726C134.876 193.726 135.357 193.605 135.798 193.353C137.149 192.58 137.616 190.859 136.843 189.509L130.521 178.468L136.712 174.971L145.82 190.876C146.34 191.784 147.289 192.293 148.266 192.293C148.741 192.293 149.222 192.173 149.664 191.92C151.014 191.148 151.482 189.426 150.708 188.076L141.618 172.201L147.725 168.752L159.711 189.684C160.231 190.593 161.18 191.102 162.157 191.102C162.632 191.102 163.113 190.981 163.555 190.729C164.905 189.956 165.373 188.235 164.599 186.885L152.63 165.982L159.456 162.128C163.815 169.523 169.104 177.138 175.35 183.882C177.032 185.693 179.897 185.677 181.538 183.818C187.462 177.138 200.016 160.447 202.374 136.939C202.567 135.007 201.393 133.213 199.558 132.585ZM173.99 155.368C168.92 155.368 164.815 151.256 164.815 146.186C164.815 141.116 168.919 137.011 173.99 137.011C179.06 137.011 183.172 141.116 183.172 146.186C183.172 151.256 179.06 155.368 173.99 155.368Z" fill="#FF9522"/>
<rect x="50" y="126.226" width="198" height="97.9168" transform="rotate(-6.44507 50 126.226)" fill="white"/>
<path d="M107.113 171.917C108.303 167.04 109.558 161.514 111.143 156.084C110.245 156.108 109.487 156.247 108.608 156.463C104.674 160.903 100.988 165.898 98.0786 170.302C97.8357 171.098 97.6432 172.403 97.5339 173.25C102.215 172.465 103.617 172.327 107.113 171.917ZM87.6357 169.405C93.1722 161.655 99.2181 153.854 106.175 146.156C111.538 145.112 118.55 144.483 123.983 144.139C121.958 154.886 119.684 166.365 119.163 170.854L124.704 170.307C123.949 173.726 123.098 177.476 122.279 180.901C121.126 180.95 118.897 181.171 117.623 181.297C116.956 184.964 116.539 187.899 116.07 191.611C112.16 191.741 107.192 192.232 103.453 192.794C104.037 188.942 104.34 186.147 105.127 182.403C98.873 182.893 91.6313 183.802 85.4338 184.864C85.6174 180.216 86.7019 172.97 87.6357 169.405ZM151.143 153.545C145.525 153.971 142.901 159.954 141.812 165.85C140.869 171.281 142.505 178.065 146.549 177.987C151.752 177.923 154.924 171.628 156.269 165.064C157.167 159.187 156.193 153.238 151.143 153.545ZM152.985 140.307C167.035 139.304 171.338 151.613 169.713 163.8C167.959 177.929 159.158 189.089 144.332 189.396C132.716 189.644 126.114 176.856 129.244 162.977C132.4 148.709 140.528 141.153 152.985 140.307ZM194.749 163.254C195.939 158.377 197.193 152.851 198.779 147.421C197.881 147.445 197.123 147.585 196.244 147.8C192.309 152.241 188.623 157.236 185.714 161.639C185.471 162.435 185.279 163.74 185.169 164.587C189.851 163.803 191.252 163.664 194.749 163.254ZM175.271 160.742C180.808 152.992 186.854 145.191 193.81 137.494C199.173 136.449 206.185 135.82 211.618 135.476C209.593 146.223 207.32 157.703 206.799 162.192L212.34 161.644C211.584 165.063 210.733 168.813 209.914 172.238C208.761 172.288 206.532 172.508 205.258 172.634C204.592 176.301 204.175 179.236 203.705 182.949C199.795 183.078 194.827 183.569 191.089 184.132C191.673 180.279 191.975 177.484 192.763 173.74C186.508 174.23 179.267 175.139 173.069 176.202C173.253 171.553 174.337 164.307 175.271 160.742Z" fill="#212529"/>
</svg>
