<svg width="16" height="16" viewBox="0 0 16 16" fill="none" xmlns="http://www.w3.org/2000/svg">
<g clip-path="url(#clip0_30_44)">
<path d="M15.8534 15.1413L11.4311 10.6918C12.3781 9.56052 12.9482 8.10175 12.9482 6.50875C12.9482 2.914 10.0497 -1.52588e-05 6.45514 -1.52588e-05C2.86062 -1.52588e-05 -0.0533447 2.91399 -0.0533447 6.50849C-0.0533447 10.103 2.86066 13.017 6.45514 13.017C8.09589 13.017 9.59064 12.4082 10.7316 11.4065L15.1461 15.8487C15.3414 16.044 15.6582 16.044 15.8532 15.8487C16.0487 15.6532 16.0487 15.3367 15.8534 15.1412L15.8534 15.1413ZM6.4467 12C3.42245 12 0.946702 9.52427 0.946702 6.50002C0.946702 3.47577 3.42245 1.00002 6.4467 1.00002C9.47095 1.00002 11.9467 3.47577 11.9467 6.50002C11.9467 9.52427 9.47095 12 6.4467 12ZM8.9467 6.00002H6.9467V4.00002C6.9467 3.72402 6.7227 3.50002 6.4467 3.50002C6.1707 3.50002 5.9467 3.72402 5.9467 4.00002V6.00002H3.9467C3.6707 6.00002 3.4467 6.22402 3.4467 6.50002C3.4467 6.77602 3.6707 7.00002 3.9467 7.00002H5.9467V9.00002C5.9467 9.27602 6.1707 9.50002 6.4467 9.50002C6.7227 9.50002 6.9467 9.27602 6.9467 9.00002V7.00002H8.9467C9.2227 7.00002 9.4467 6.77602 9.4467 6.50002C9.4467 6.22402 9.22295 6.00002 8.9467 6.00002Z" fill="white"/>
</g>
<defs>
<clipPath id="clip0_30_44">
<rect width="16" height="16" fill="white"/>
</clipPath>
</defs>
</svg>
